# xmcd
#
# Track frame offsets:
# 150
# 11535
# 29384
# 46394
# 62271
# 79603
# 94887
# 109799
# 123674
# 140703
#
# Disc length: 2142 seconds
#
# Revision: 1
# Processed by: cddbd v1.4PL0 Copyright (c) Steve Scherf et al.
# Submitted via: Axialis_AX_CDPlayer 2.6
#
DISCID=7f085c0a
DTITLE=The Marshall Tucker Band - Walk Outside The Lines
DYEAR=1900
DGENRE=Country
TTITLE0=Walk Outside The Lines - Walk Outside The Lines
TTITLE1=Daddy's Eyes - Daddy's Eyes
TTITLE2=If That Isn't Love - If That Isn't Love
TTITLE3=Down We Go - Down We Go
TTITLE4=She's Waiting - She's Waiting
TTITLE5=Miss You - Miss You
TTITLE6=Daddy Never Told Me - Daddy Never Told Me
TTITLE7=I'll Be Alright Without You - I'll Be Alright Without You
TTITLE8=The First One To Say Goodbye - The First One To Say Goodbye
TTITLE9=The Marshall Tucker Band - Lost In Time
EXTD=
EXTT0=
EXTT1=
EXTT2=
EXTT3=
EXTT4=
EXTT5=
EXTT6=
EXTT7=
EXTT8=
EXTT9=
PLAYORDER=
